<?xml version="1.0" standalone="no"?>
<!DOCTYPE svg PUBLIC "-//W3C//DTD SVG 20010904//EN"
 "http://www.w3.org/TR/2001/REC-SVG-20010904/DTD/svg10.dtd">
<svg version="1.0" xmlns="http://www.w3.org/2000/svg"
 width="198.000000pt" height="198.000000pt" viewBox="0 0 198.000000 198.000000"
 preserveAspectRatio="xMidYMid meet">

<g transform="translate(0.000000,198.000000) scale(0.100000,-0.100000)"
fill="#000000" stroke="none">
<path d="M855 1969 c-145 -18 -316 -86 -442 -176 -85 -61 -220 -206 -271 -292
-230 -388 -174 -874 137 -1194 172 -178 368 -273 614 -298 480 -51 934 268
1052 736 31 123 38 223 25 342 -25 231 -113 423 -269 586 -219 229 -524 336
-846 296z m287 -120 c210 -42 395 -152 522 -308 218 -271 257 -635 100 -945
-75 -148 -209 -287 -354 -368 -338 -186 -764 -126 -1035 148 -122 123 -186
237 -231 410 -23 89 -25 112 -21 234 6 152 26 239 84 355 124 245 337 410 608
470 74 16 255 19 327 4z"/>
<path d="M890 1759 c-25 -5 -62 -11 -82 -14 -21 -2 -51 -11 -67 -20 -17 -8
-37 -15 -46 -15 -8 0 -15 -4 -15 -10 0 -5 -5 -10 -12 -10 -13 0 -105 -58 -128
-80 -18 -18 -15 -50 5 -50 8 0 17 -9 20 -20 3 -11 11 -20 16 -20 31 0 57 -75
45 -125 -7 -28 -36 -34 -56 -10 -7 9 -15 13 -17 11 -8 -8 -113 89 -113 103 0
12 15 28 33 34 14 5 26 37 13 37 -2 0 -27 -23 -56 -50 -42 -40 -50 -53 -41
-64 10 -12 8 -14 -11 -9 -23 5 90 -60 168 -97 57 -27 71 -45 50 -65 -17 -18
-22 -30 -8 -21 5 3 19 -4 31 -15 12 -12 25 -18 29 -14 4 4 1 10 -5 12 -23 8
-13 23 11 17 16 -4 27 -1 33 10 5 9 22 17 38 18 17 1 37 8 46 15 16 14 72 13
179 -1 l45 -6 -48 15 c-43 14 -47 18 -35 32 12 14 13 15 16 1 3 -13 9 -14 39
-6 20 5 52 7 72 4 20 -4 47 -7 61 -7 14 -1 31 -5 37 -11 7 -6 24 -7 38 -4 20
5 27 2 37 -18 6 -14 14 -23 18 -21 4 3 7 -10 6 -28 -1 -37 19 -42 67 -19 26
13 27 15 13 31 -23 25 -20 35 12 49 25 10 25 11 2 6 -24 -6 -24 -5 -5 9 10 8
25 13 32 10 7 -3 13 0 13 6 0 6 9 11 20 11 11 0 20 5 20 10 0 6 9 10 20 10 11
0 20 5 20 10 0 6 6 10 14 10 7 0 19 7 26 15 7 8 15 13 19 11 10 -5 50 41 43
50 -4 4 1 4 11 1 20 -8 21 1 3 26 -10 13 -15 15 -19 5 -4 -11 -7 -11 -18 0
-12 11 -12 14 1 23 12 9 10 10 -7 6 -17 -4 -23 -1 -23 12 0 18 -39 61 -56 61
-5 0 -1 -7 9 -14 17 -13 16 -14 -8 -12 -22 1 -26 5 -22 24 3 18 2 20 -10 11
-7 -7 -17 -9 -20 -5 -4 4 -2 11 6 15 9 6 -3 16 -38 35 -28 14 -51 22 -51 16 0
-5 8 -10 18 -10 12 0 13 -3 5 -8 -7 -4 -29 -6 -48 -4 -34 4 -44 19 -25 38 6 6
-6 15 -35 25 -41 15 -44 15 -35 0 5 -10 5 -23 0 -31 -6 -10 -11 -4 -17 21 -9
33 -11 34 -66 37 -55 3 -57 2 -57 -23 0 -16 -6 -25 -15 -25 -8 0 -15 9 -15 19
0 11 -6 22 -12 24 -10 4 -10 6 0 6 6 1 12 6 12 11 0 12 -66 11 -130 -1z m-213
-95 c-3 -3 -12 -4 -19 -1 -8 3 -5 6 6 6 11 1 17 -2 13 -5z m-62 -33 c-3 -6
-11 -8 -17 -5 -6 4 -5 9 3 15 16 10 23 4 14 -10z m675 -336 c0 -8 -4 -15 -10
-15 -5 0 -7 7 -4 15 4 8 8 15 10 15 2 0 4 -7 4 -15z"/>
<path d="M1120 1246 c0 -2 7 -7 16 -10 8 -3 12 -2 9 4 -6 10 -25 14 -25 6z"/>
<path d="M1205 1220 c-3 -5 -1 -10 4 -10 6 0 11 5 11 10 0 6 -2 10 -4 10 -3 0
-8 -4 -11 -10z"/>
<path d="M1340 1220 c0 -5 5 -10 11 -10 5 0 7 5 4 10 -3 6 -8 10 -11 10 -2 0
-4 -4 -4 -10z"/>
<path d="M616 1178 c-12 -23 -13 -27 -2 -14 15 19 16 19 38 0 13 -10 17 -12
11 -4 -7 8 -13 22 -13 32 0 27 -14 22 -34 -14z"/>
<path d="M1253 1197 c15 -7 36 -25 47 -42 26 -40 26 -26 -1 19 -16 27 -27 36
-47 36 l-27 -1 28 -12z"/>
<path d="M1360 1195 c0 -5 9 -23 20 -40 26 -39 26 -25 0 17 -11 18 -20 29 -20
23z"/>
<path d="M813 1163 c9 -2 25 -2 35 0 9 3 1 5 -18 5 -19 0 -27 -2 -17 -5z"/>
<path d="M703 1143 c9 -2 23 -2 30 0 6 3 -1 5 -18 5 -16 0 -22 -2 -12 -5z"/>
<path d="M910 1136 c0 -2 7 -9 15 -16 9 -7 15 -8 15 -2 0 5 -7 12 -15 16 -8 3
-15 4 -15 2z"/>
<path d="M1421 1093 c7 -12 15 -20 18 -17 3 2 -3 12 -13 22 -17 16 -18 16 -5
-5z"/>
<path d="M1369 1042 c6 -12 16 -24 22 -28 8 -4 8 -1 0 14 -6 12 -16 24 -22 28
-8 4 -8 1 0 -14z"/>
<path d="M1450 1045 c0 -8 4 -15 10 -15 5 0 7 7 4 15 -4 8 -8 15 -10 15 -2 0
-4 -7 -4 -15z"/>
<path d="M733 1010 c-13 -5 -23 -12 -23 -15 0 -9 16 -5 36 10 22 16 19 18 -13
5z"/>
<path d="M1412 975 c6 -14 15 -25 20 -25 5 0 1 11 -8 25 -9 14 -18 25 -20 25
-2 0 2 -11 8 -25z"/>
<path d="M1486 987 c3 -10 9 -15 12 -12 3 3 0 11 -7 18 -10 9 -11 8 -5 -6z"/>
<path d="M1530 921 c0 -5 7 -15 17 -22 15 -13 15 -12 4 9 -12 23 -21 28 -21
13z"/>
<path d="M391 904 c0 -11 3 -14 6 -6 3 7 2 16 -1 19 -3 4 -6 -2 -5 -13z"/>
<path d="M1460 902 c6 -13 14 -21 18 -18 3 4 -2 14 -12 24 -18 16 -18 16 -6
-6z"/>
<path d="M505 880 c-3 -6 1 -7 9 -4 18 7 21 14 7 14 -6 0 -13 -4 -16 -10z"/>
<path d="M446 863 c-6 -14 -5 -15 5 -6 7 7 10 15 7 18 -3 3 -9 -2 -12 -12z"/>
<path d="M1480 858 c0 -8 -14 -22 -31 -32 -24 -14 -28 -21 -18 -27 10 -6 7 -9
-11 -9 -21 -1 -22 -2 -8 -10 19 -11 14 -46 -9 -54 -8 -3 -12 -9 -10 -13 12
-19 -66 -12 -96 8 l-32 21 28 -26 c26 -24 37 -43 17 -31 -5 3 -10 1 -10 -6 0
-6 -12 -23 -27 -36 -26 -23 -26 -24 -5 -18 22 6 28 -1 14 -20 -7 -10 -48 -35
-57 -35 -11 0 -4 29 8 33 9 3 9 7 1 17 -9 9 -14 5 -19 -19 -7 -34 -15 -41 -48
-46 -12 -1 -31 -6 -41 -11 -15 -5 -17 -4 -11 6 6 10 2 12 -18 8 -19 -4 -24 -1
-19 10 3 9 1 13 -5 9 -6 -4 -16 0 -23 8 -8 10 -17 12 -24 6 -6 -5 -13 -9 -16
-9 -11 2 -109 -59 -104 -65 3 -3 -3 -3 -15 0 -12 3 -21 1 -21 -5 0 -13 -54
-32 -91 -32 -30 0 -49 23 -49 59 0 15 -6 21 -21 21 -11 0 -17 -4 -14 -10 3 -5
2 -10 -4 -10 -5 0 -13 5 -16 10 -3 6 -17 10 -30 10 -21 0 -22 2 -12 29 5 15 7
36 4 45 -6 15 -10 15 -41 2 -24 -10 -44 -12 -63 -6 -15 4 -22 9 -15 9 7 1 10
6 7 12 -11 16 -12 69 -3 75 5 3 6 9 3 14 -3 4 5 6 17 3 38 -9 7 14 -32 25 -30
7 -35 12 -32 36 3 25 0 27 -31 24 -19 -1 -46 6 -60 15 l-26 17 -17 -45 -17
-45 -45 25 c-25 14 -46 24 -48 23 -5 -6 41 -126 67 -175 16 -29 26 -53 23 -53
-7 0 44 -68 75 -100 13 -14 30 -35 38 -48 9 -12 22 -22 29 -22 8 0 14 -8 14
-17 0 -10 23 -33 52 -51 40 -27 53 -31 60 -20 7 10 8 10 6 -2 -2 -9 2 -17 7
-19 6 -1 15 -7 22 -12 7 -6 13 -6 17 0 7 10 31 9 42 -2 4 -4 -4 -7 -17 -7
l-24 -1 25 -14 c14 -8 32 -14 41 -15 9 0 30 -7 45 -15 33 -17 64 -20 64 -5 0
6 9 10 20 10 11 0 20 7 20 15 0 8 5 15 10 15 6 0 10 -4 10 -10 0 -5 14 -10 31
-10 28 0 31 -3 26 -26 -4 -22 -2 -25 17 -20 11 3 59 6 106 6 89 2 160 15 160
29 0 5 8 7 19 4 10 -2 25 3 34 11 8 9 22 16 31 16 27 0 65 22 60 35 -6 15 12
29 39 31 9 1 22 2 27 3 13 1 130 109 150 137 59 85 68 103 64 125 -4 15 -2 19
3 12 9 -13 36 -2 31 13 -1 5 6 24 16 43 15 27 15 35 5 42 -11 6 -11 11 -1 21
6 6 12 8 12 2 1 -5 10 10 21 34 11 23 17 47 14 52 -3 5 -1 11 5 15 5 3 10 11
10 17 0 6 -9 3 -19 -6 -10 -9 -18 -25 -16 -34 1 -9 0 -11 -2 -4 -6 17 -10 16
-47 -13 -18 -14 -36 -25 -39 -25 -4 0 -20 17 -35 39 -24 33 -31 37 -45 26 -9
-6 -15 -14 -13 -16 3 -2 -8 -4 -23 -4 -21 0 -27 4 -24 16 3 9 0 20 -6 23 -6 4
-11 1 -11 -6z m-30 -478 c0 -5 -5 -10 -11 -10 -5 0 -7 5 -4 10 3 6 8 10 11 10
2 0 4 -4 4 -10z m-657 -127 c-7 -2 -19 -2 -25 0 -7 3 -2 5 12 5 14 0 19 -2 13
-5z"/>
<path d="M1378 323 c7 -3 16 -2 19 1 4 3 -2 6 -13 5 -11 0 -14 -3 -6 -6z"/>
</g>
</svg>
